<svg width="2693" height="800" viewBox="0 0 2693 800" fill="none" xmlns="http://www.w3.org/2000/svg">
<g clip-path="url(#clip0_11355_17219)">
<path fill-rule="evenodd" clip-rule="evenodd" d="M303.638 79.5203C317.894 83.3248 316.745 110.242 302.788 115.021C260.594 129.469 220.949 153.526 187.268 187.191C153.59 220.858 129.523 260.485 115.069 302.662C110.288 316.613 83.3594 317.76 79.5533 303.512L0.17546 6.34542C-0.823497 2.60416 2.60524 -0.823155 6.34806 0.175387L303.638 79.5203ZM496.694 720.482C482.441 716.678 483.588 689.758 497.547 684.979C539.741 670.533 579.385 646.474 613.064 612.809C646.743 579.145 670.812 539.517 685.264 497.34C690.045 483.387 716.976 482.24 720.782 496.488L800.157 793.655C801.156 797.396 797.727 800.823 793.987 799.825L496.694 720.482ZM400.153 255.972C437.082 255.894 474.011 269.917 502.158 298.053C530.022 325.905 544.051 362.358 544.254 398.901C544.612 436.176 530.585 473.537 502.163 501.949C474.015 530.083 437.086 544.108 400.158 544.03C363.235 544.102 326.318 530.079 298.177 501.949C269.752 473.537 255.725 436.172 256.085 398.895C256.288 362.356 270.317 325.903 298.181 298.053C326.32 269.926 363.233 255.9 400.153 255.972ZM496.701 79.5203C482.445 83.3248 483.592 110.242 497.552 115.021C539.746 129.469 579.39 153.526 613.069 187.191C646.747 220.858 670.816 260.485 685.268 302.662C690.049 316.613 716.98 317.76 720.786 303.512L800.162 6.34542C801.161 2.60416 797.732 -0.823155 793.991 0.175387L496.701 79.5203ZM303.643 720.482C317.899 716.678 316.749 689.758 302.792 684.979C260.598 670.533 220.954 646.474 187.275 612.809C153.594 579.145 129.527 539.517 115.073 497.34C110.292 483.387 83.3637 482.24 79.5577 496.488L0.181983 793.655C-0.816974 797.396 2.6096 800.823 6.35242 799.825L303.643 720.482Z" fill="white"/>
<path fill-rule="evenodd" clip-rule="evenodd" d="M303.638 79.5203C317.894 83.3248 316.745 110.242 302.788 115.021C260.594 129.469 220.949 153.526 187.268 187.191C153.59 220.858 129.523 260.485 115.069 302.662C110.288 316.613 83.3594 317.76 79.5533 303.512L0.17546 6.34542C-0.823497 2.60416 2.60524 -0.823155 6.34806 0.175387L303.638 79.5203ZM496.694 720.482C482.441 716.678 483.588 689.758 497.547 684.979C539.741 670.533 579.385 646.474 613.064 612.809C646.743 579.145 670.812 539.517 685.264 497.34C690.045 483.387 716.976 482.24 720.782 496.488L800.157 793.655C801.156 797.396 797.727 800.823 793.987 799.825L496.694 720.482ZM400.153 255.972C437.082 255.894 474.011 269.917 502.158 298.053C530.022 325.905 544.051 362.358 544.254 398.901C544.612 436.176 530.585 473.537 502.163 501.949C474.015 530.083 437.086 544.108 400.158 544.03C363.235 544.102 326.318 530.079 298.177 501.949C269.752 473.537 255.725 436.172 256.085 398.895C256.288 362.356 270.317 325.903 298.181 298.053C326.32 269.926 363.233 255.9 400.153 255.972ZM496.701 79.5203C482.445 83.3248 483.592 110.242 497.552 115.021C539.746 129.469 579.39 153.526 613.069 187.191C646.747 220.858 670.816 260.485 685.268 302.662C690.049 316.613 716.98 317.76 720.786 303.512L800.162 6.34542C801.161 2.60416 797.732 -0.823155 793.991 0.175387L496.701 79.5203ZM303.643 720.482C317.899 716.678 316.749 689.758 302.792 684.979C260.598 670.533 220.954 646.474 187.275 612.809C153.594 579.145 129.527 539.517 115.073 497.34C110.292 483.387 83.3637 482.24 79.5577 496.488L0.181983 793.655C-0.816974 797.396 2.6096 800.823 6.35242 799.825L303.643 720.482Z" fill="white"/>
<path d="M1399.52 393.13C1436.16 399.67 1467.24 418.965 1492.76 451.014C1518.28 483.064 1531.04 519.365 1531.04 559.917C1531.04 594.582 1521.88 625.977 1503.56 654.102C1485.89 681.573 1460.04 703.484 1426.02 719.836C1391.99 735.534 1352.4 743.382 1307.25 743.382H1034.4V61.5176H1294.5C1340.95 61.5176 1380.87 69.3664 1414.24 85.064C1447.61 100.762 1472.8 122.019 1489.82 148.836C1506.83 174.998 1515.33 204.431 1515.33 237.135C1515.33 276.379 1504.87 309.082 1483.93 335.245C1462.99 361.407 1434.85 380.702 1399.52 393.13ZM1146.29 347.999H1284.68C1321.32 347.999 1349.79 339.823 1370.07 323.471C1391.01 306.466 1401.48 282.265 1401.48 250.87C1401.48 220.129 1391.01 196.255 1370.07 179.25C1349.79 161.59 1321.32 152.76 1284.68 152.76H1146.29V347.999ZM1297.44 652.14C1335.39 652.14 1365.16 642.983 1386.76 624.669C1408.35 606.355 1419.15 580.847 1419.15 548.143C1419.15 514.786 1407.7 488.296 1384.79 468.674C1361.89 449.052 1331.47 439.241 1293.51 439.241H1146.29V652.14H1297.44ZM1773.36 61.5176V496.145C1773.36 547.816 1786.77 586.733 1813.6 612.896C1841.08 639.059 1879.03 652.14 1927.45 652.14C1976.53 652.14 2014.48 639.059 2041.31 612.896C2068.79 586.733 2082.53 547.816 2082.53 496.145V61.5176H2194.42V494.183C2194.42 549.779 2182.32 596.871 2158.11 635.461C2133.9 674.051 2101.51 702.83 2060.94 721.798C2020.37 740.766 1975.55 750.25 1926.47 750.25C1877.4 750.25 1832.57 740.766 1792 721.798C1752.09 702.83 1720.35 674.051 1696.8 635.461C1673.24 596.871 1661.46 549.779 1661.46 494.183V61.5176H1773.36ZM2461.81 653.121H2692.46V743.382H2349.92V61.5176H2461.81V653.121Z" fill="white"/>
<path d="M1399.52 393.13C1436.16 399.67 1467.24 418.965 1492.76 451.014C1518.28 483.064 1531.04 519.365 1531.04 559.917C1531.04 594.582 1521.88 625.977 1503.56 654.102C1485.89 681.573 1460.04 703.484 1426.02 719.836C1391.99 735.534 1352.4 743.382 1307.25 743.382H1034.4V61.5176H1294.5C1340.95 61.5176 1380.87 69.3664 1414.24 85.064C1447.61 100.762 1472.8 122.019 1489.82 148.836C1506.83 174.998 1515.33 204.431 1515.33 237.135C1515.33 276.379 1504.87 309.082 1483.93 335.245C1462.99 361.407 1434.85 380.702 1399.52 393.13ZM1146.29 347.999H1284.68C1321.32 347.999 1349.79 339.823 1370.07 323.471C1391.01 306.466 1401.48 282.265 1401.48 250.87C1401.48 220.129 1391.01 196.255 1370.07 179.25C1349.79 161.59 1321.32 152.76 1284.68 152.76H1146.29V347.999ZM1297.44 652.14C1335.39 652.14 1365.16 642.983 1386.76 624.669C1408.35 606.355 1419.15 580.847 1419.15 548.143C1419.15 514.786 1407.7 488.296 1384.79 468.674C1361.89 449.052 1331.47 439.241 1293.51 439.241H1146.29V652.14H1297.44ZM1773.36 61.5176V496.145C1773.36 547.816 1786.77 586.733 1813.6 612.896C1841.08 639.059 1879.03 652.14 1927.45 652.14C1976.53 652.14 2014.48 639.059 2041.31 612.896C2068.79 586.733 2082.53 547.816 2082.53 496.145V61.5176H2194.42V494.183C2194.42 549.779 2182.32 596.871 2158.11 635.461C2133.9 674.051 2101.51 702.83 2060.94 721.798C2020.37 740.766 1975.55 750.25 1926.47 750.25C1877.4 750.25 1832.57 740.766 1792 721.798C1752.09 702.83 1720.35 674.051 1696.8 635.461C1673.24 596.871 1661.46 549.779 1661.46 494.183V61.5176H1773.36ZM2461.81 653.121H2692.46V743.382H2349.92V61.5176H2461.81V653.121Z" fill="white"/>
</g>
<defs>
<clipPath id="clip0_11355_17219">
<rect width="2693" height="800" fill="white"/>
</clipPath>
</defs>
</svg>
