<svg width="24" height="24" viewBox="0 0 24 24" fill="none" xmlns="http://www.w3.org/2000/svg">
<path d="M21 11.11V7C21.0004 6.47185 20.7919 5.96498 20.42 5.59C20.2387 5.39662 20.0183 5.24401 19.7734 5.14229C19.5286 5.04057 19.265 4.99207 19 5H15V3C15.0073 2.73599 14.9595 2.47336 14.8597 2.22887C14.7598 1.98437 14.6101 1.76338 14.42 1.58C14.2366 1.38994 14.0156 1.2402 13.7711 1.14033C13.5266 1.04047 13.264 0.992674 13 0.999998H9C8.736 0.992674 8.47337 1.04047 8.22887 1.14033C7.98437 1.2402 7.76338 1.38994 7.58 1.58C7.38994 1.76338 7.2402 1.98437 7.14034 2.22887C7.04047 2.47336 6.99268 2.73599 7 3V5H3C2.73501 4.99207 2.47137 5.04057 2.22655 5.14229C1.98173 5.24401 1.76135 5.39662 1.58 5.59C1.20808 5.96498 0.999579 6.47185 1 7V18C0.999579 18.5281 1.20808 19.035 1.58 19.41C1.76135 19.6034 1.98173 19.756 2.22655 19.8577C2.47137 19.9594 2.73501 20.0079 3 20H10.26C10.8097 20.8028 11.5206 21.4821 12.3475 21.9948C13.1744 22.5074 14.0991 22.842 15.0626 22.9773C16.026 23.1126 17.0071 23.0455 17.9432 22.7804C18.8793 22.5153 19.7499 22.058 20.4993 21.4376C21.2488 20.8172 21.8607 20.0475 22.296 19.1774C22.7313 18.3073 22.9805 17.356 23.0276 16.3842C23.0747 15.4125 22.9188 14.4416 22.5696 13.5334C22.2205 12.6253 21.6859 11.8 21 11.11ZM9 3H13V5H9M3 18V7H19V9.68C18.0646 9.22849 17.0387 8.99595 16 9C14.1435 9 12.363 9.7375 11.0503 11.0503C9.7375 12.363 9 14.1435 9 16C8.99942 16.6772 9.0971 17.3509 9.29 18M19 20C18.1345 20.6491 17.0819 21 16 21C14.9181 21 13.8655 20.6491 13 20C12.3755 19.5375 11.869 18.9343 11.5214 18.2393C11.1739 17.5443 10.9953 16.777 11 16C11 14.6739 11.5268 13.4021 12.4645 12.4645C13.4021 11.5268 14.6739 11 16 11C17.0826 10.9956 18.1366 11.347 19 12C19.621 12.4657 20.125 13.0697 20.4721 13.7639C20.8193 14.4582 21 15.2238 21 16C21 16.7762 20.8193 17.5418 20.4721 18.2361C20.125 18.9303 19.621 19.5343 19 20ZM15 13H16.5V15.82L18.94 17.23L18.19 18.53L15 16.69V13Z" fill="black"/>
</svg>
