<svg width="24" height="24" viewBox="0 0 24 24" fill="none" xmlns="http://www.w3.org/2000/svg">
<path d="M17 13C16.9389 12.9989 16.8793 13.0193 16.8318 13.0577C16.7842 13.0961 16.7517 13.15 16.74 13.21L16.55 14.53C16.25 14.66 15.96 14.82 15.7 15L14.46 14.5C14.35 14.5 14.22 14.5 14.15 14.63L13.15 16.36C13.09 16.47 13.11 16.6 13.21 16.68L14.27 17.5C14.2302 17.8321 14.2302 18.1679 14.27 18.5L13.21 19.32C13.1651 19.3585 13.1346 19.4113 13.1237 19.4694C13.1128 19.5276 13.1221 19.5878 13.15 19.64L14.15 21.37C14.21 21.5 14.34 21.5 14.46 21.5L15.7 21C15.96 21.18 16.24 21.35 16.55 21.47L16.74 22.79C16.76 22.91 16.86 23 17 23H19C19.11 23 19.22 22.91 19.24 22.79L19.43 21.47C19.73 21.34 20 21.18 20.27 21L21.5 21.5C21.63 21.5 21.76 21.5 21.83 21.37L22.83 19.64C22.8579 19.5878 22.8672 19.5276 22.8563 19.4694C22.8454 19.4113 22.8149 19.3585 22.77 19.32L21.7 18.5C21.72 18.33 21.74 18.17 21.74 18C21.74 17.83 21.73 17.67 21.7 17.5L22.76 16.68C22.8049 16.6415 22.8354 16.5887 22.8463 16.5306C22.8572 16.4724 22.8479 16.4122 22.82 16.36L21.82 14.63C21.76 14.5 21.63 14.5 21.5 14.5L20.27 15C20 14.82 19.73 14.65 19.42 14.53L19.23 13.21C19.2237 13.153 19.1969 13.1003 19.1546 13.0617C19.1122 13.023 19.0573 13.0011 19 13H17ZM18 16.5C18.83 16.5 19.5 17.17 19.5 18C19.5 18.83 18.83 19.5 18 19.5C17.16 19.5 16.5 18.83 16.5 18C16.5 17.17 17.17 16.5 18 16.5ZM10 5H12V7H10V5ZM16 7H14V5H16V7ZM14 9H16V11H14V9ZM10 9H12V11H10V9ZM13.11 23H2V1H20V11.29C19.37 11.11 18.7 11 18 11V3H4V21H10V17.5H11.03C11 17.67 11 17.83 11 18C11 19.96 11.81 21.73 13.11 23ZM8 15H6V13H8V15ZM8 11H6V9H8V11ZM8 7H6V5H8V7ZM6 17H8V19H6V17ZM10 13H12V14.41C11.89 14.6 11.78 14.8 11.68 15H10V13Z" fill="black"/>
</svg>
