<svg width="24" height="24" viewBox="0 0 24 24" fill="none" xmlns="http://www.w3.org/2000/svg">
<path d="M17 16.88C17.56 16.88 18 17.32 18 17.88C18 18.44 17.56 18.88 17 18.88C16.44 18.88 16 18.43 16 17.88C16 17.33 16.44 16.88 17 16.88ZM17 13.88C19.73 13.88 22.06 15.54 23 17.88C22.06 20.22 19.73 21.88 17 21.88C14.27 21.88 11.94 20.22 11 17.88C11.94 15.54 14.27 13.88 17 13.88ZM17 15.38C16.337 15.38 15.7011 15.6434 15.2322 16.1122C14.7634 16.5811 14.5 17.217 14.5 17.88C14.5 18.543 14.7634 19.1789 15.2322 19.6478C15.7011 20.1166 16.337 20.38 17 20.38C17.663 20.38 18.2989 20.1166 18.7678 19.6478C19.2366 19.1789 19.5 18.543 19.5 17.88C19.5 17.217 19.2366 16.5811 18.7678 16.1122C18.2989 15.6434 17.663 15.38 17 15.38ZM18 3H4C2.9 3 2 3.9 2 5V17C2 18.1 2.9 19 4 19H9.42C9.26 18.68 9.12 18.34 9 18C9.12 17.66 9.26 17.32 9.42 17H4V13H10V15.97C10.55 15.11 11.23 14.37 12 13.76V13H13.15C14.31 12.36 15.62 12 17 12C18.06 12 19.07 12.21 20 12.59V5C20 3.9 19.1 3 18 3ZM10 11H4V7H10V11ZM18 11H12V7H18V11Z" fill="black"/>
</svg>
