<svg width="24" height="24" viewBox="0 0 24 24" fill="none" xmlns="http://www.w3.org/2000/svg">
<path d="M15.5 15.5C16.33 15.5 17 14.83 17 14C17 13.17 16.33 12.5 15.5 12.5C14.67 12.5 14 13.17 14 14C14 14.83 14.67 15.5 15.5 15.5ZM7 3H17C17.5304 3 18.0391 3.21071 18.4142 3.58579C18.7893 3.96086 19 4.46957 19 5V7C19.5304 7 20.0391 7.21071 20.4142 7.58579C20.7893 7.96086 21 8.46957 21 9V19C21 20.11 20.11 21 19 21H7C4.79 21 3 19.21 3 17V7C3 4.79 4.79 3 7 3ZM17 7V5H7C5.9 5 5 5.9 5 7V7.54C5.60768 7.18749 6.29748 7.00125 7 7H17ZM5 17C5 17.5304 5.21071 18.0391 5.58579 18.4142C5.96086 18.7893 6.46957 19 7 19H19V9H7C5.9 9 5 9.9 5 11V17Z" fill="black"/>
</svg>
