<svg width="704" height="704" viewBox="0 0 704 704" fill="none" xmlns="http://www.w3.org/2000/svg">
<path fill-rule="evenodd" clip-rule="evenodd" d="M267.09 69.9757C279.629 73.3236 278.618 97.0104 266.341 101.216C229.226 113.93 194.354 135.102 164.727 164.727C135.102 194.352 113.932 229.224 101.218 266.339C97.0122 278.616 73.3253 279.627 69.9774 267.088L0.15434 5.58211C-0.724373 2.28982 2.29166 -0.724297 5.58395 0.154415L267.09 69.9757ZM436.906 634.019C424.369 630.671 425.378 606.983 437.657 602.777C474.772 590.064 509.645 568.893 539.27 539.268C568.895 509.643 590.065 474.77 602.778 437.655C606.985 425.376 630.672 424.367 634.02 436.906L703.842 698.413C704.72 701.702 701.704 704.718 698.415 703.84L436.906 634.019ZM351.986 225.253C384.47 225.184 416.954 237.524 441.713 262.283C466.224 286.794 478.564 318.873 478.741 351.03C479.056 383.831 466.719 416.707 441.717 441.711C416.958 466.47 384.474 478.812 351.99 478.742C319.512 478.806 287.038 466.465 262.285 441.711C237.281 416.707 224.944 383.827 225.26 351.026C225.438 318.869 237.778 286.794 262.289 262.283C287.04 237.532 319.51 225.192 351.986 225.253ZM436.91 69.9757C424.373 73.3236 425.382 97.0104 437.661 101.218C474.776 113.93 509.649 135.102 539.274 164.727C568.898 194.352 590.069 229.224 602.782 266.339C606.987 278.616 630.676 279.627 634.024 267.088L703.845 5.58211C704.723 2.28982 701.708 -0.724297 698.419 0.154415L436.91 69.9757ZM267.094 634.019C279.633 630.671 278.622 606.983 266.345 602.777C229.23 590.064 194.357 568.893 164.733 539.268C135.106 509.643 113.936 474.77 101.222 437.655C97.0161 425.376 73.3292 424.367 69.9813 436.906L0.160078 698.413C-0.718635 701.702 2.29549 704.718 5.58778 703.84L267.094 634.019Z" fill="black"/>
</svg>
